External Loads File
version=1
nRows=39
nColumns=13
Range=5.000000e-03-10 seconds
endheader
time 	forceRightX 	forceRightY 	forceRightZ 	pointRightX 	pointRightY 	pointRightZ 	forceLeftX 	forceLeftY 	forceLeftZ 	pointLeftX 	pointLeftY 	pointLeftZ 		
0.005000 15.590916 97.907977 -0.000000 0.439273 0.446231 -0.192720 11.490295 133.825859 -0.000000 0.190938 0.216157 -0.440136
0.010000 15.095385 97.984073 -0.000000 0.439277 0.446223 -0.192704 11.976351 134.440653 -0.000000 0.190925 0.216171 -0.440153
0.015000 14.598973 98.058803 -0.000000 0.439287 0.446220 -0.192704 12.434374 135.041573 -0.000000 0.190899 0.216170 -0.440160
0.020000 14.173450 98.144254 -0.000000 0.439295 0.446013 -0.192738 12.920682 135.625362 -0.000000 0.190890 0.216179 -0.440164
0.025000 13.623440 98.292171 -0.000000 0.439114 0.446558 -0.192585 13.145465 136.230998 -0.000000 0.190782 0.216236 -0.440066
0.030000 13.226252 98.472574 -0.000000 0.439051 0.446654 -0.192545 13.479726 136.807790 -0.000000 0.190753 0.216251 -0.440061
0.035000 12.884245 98.689244 -0.000000 0.439026 0.446693 -0.192528 13.766834 137.327539 -0.000000 0.190758 0.216249 -0.440062
0.040000 12.578627 98.929612 -0.000000 0.439005 0.446756 -0.192538 13.956029 137.757552 -0.000000 0.190754 0.216238 -0.440063
0.045000 12.327401 99.192185 -0.000000 0.438984 0.446776 -0.192541 14.049734 138.077068 -0.000000 0.190773 0.216216 -0.440058
0.050000 12.138891 99.490574 -0.000000 0.438955 0.446803 -0.192531 14.036173 138.272002 -0.000000 0.190798 0.216198 -0.440068
0.055000 12.020029 99.828652 -0.000000 0.438927 0.446846 -0.192535 13.920082 138.335730 -0.000000 0.190839 0.216157 -0.440079
0.060000 11.977523 100.192374 -0.000000 0.438886 0.446887 -0.192522 13.735732 138.278375 -0.000000 0.190890 0.216114 -0.440077
0.065000 12.010711 100.566030 -0.000000 0.438846 0.446927 -0.192525 13.517442 138.125311 -0.000000 0.190947 0.216080 -0.440083
0.070000 12.105977 100.937311 -0.000000 0.438818 0.446971 -0.192534 13.291958 137.910692 -0.000000 0.191001 0.216030 -0.440080
0.075000 12.242989 101.287382 -0.000000 0.438777 0.447016 -0.192528 13.100251 137.667959 -0.000000 0.191056 0.215994 -0.440078
0.080000 12.385221 101.588170 -0.000000 0.438760 0.447053 -0.192540 12.968886 137.420249 -0.000000 0.191124 0.215953 -0.440060
0.085000 12.497028 101.805927 -0.000000 0.438743 0.447096 -0.192556 12.913021 137.180821 -0.000000 0.191174 0.215916 -0.440064
0.090000 12.557089 101.916468 -0.000000 0.438734 0.447137 -0.192555 12.936164 136.956580 -0.000000 0.191223 0.215880 -0.440062
0.095000 12.566114 101.917573 -0.000000 0.438715 0.447160 -0.192554 13.022636 136.742014 -0.000000 0.191268 0.215852 -0.440060
0.100000 12.545967 101.826942 -0.000000 0.438717 0.447200 -0.192557 13.147438 136.529640 -0.000000 0.191293 0.215821 -0.440084
0.105000 12.533349 101.673076 -0.000000 0.438720 0.447221 -0.192572 13.295925 136.327709 -0.000000 0.191319 0.215811 -0.440076
0.110000 12.544115 101.485690 -0.000000 0.438725 0.447233 -0.192557 13.433689 136.149298 -0.000000 0.191323 0.215787 -0.440074
0.115000 12.583076 101.284675 -0.000000 0.438715 0.447236 -0.192577 13.534533 135.990273 -0.000000 0.191331 0.215790 -0.440069
0.120000 12.638146 101.082182 -0.000000 0.438727 0.447240 -0.192583 13.588257 135.847196 -0.000000 0.191313 0.215790 -0.440074
0.125000 12.680126 100.892811 -0.000000 0.438731 0.447263 -0.192590 13.595019 135.739668 -0.000000 0.191294 0.215793 -0.440071
0.130000 12.710653 100.736080 -0.000000 0.438723 0.447272 -0.192577 13.611143 135.696265 -0.000000 0.191260 0.215816 -0.440080
0.135000 12.710580 100.629616 -0.000000 0.438737 0.447253 -0.192575 13.679211 135.747268 -0.000000 0.191236 0.215830 -0.440077
0.140000 12.639775 100.572063 -0.000000 0.438726 0.447258 -0.192570 13.819566 135.917851 -0.000000 0.191192 0.215838 -0.440073
0.145000 12.502358 100.550385 -0.000000 0.438722 0.447256 -0.192562 14.079181 136.217105 -0.000000 0.191157 0.215861 -0.440066
0.150000 12.313681 100.567915 -0.000000 0.438700 0.447234 -0.192548 14.465571 136.653132 -0.000000 0.191101 0.215876 -0.440074
0.155000 12.100929 100.637937 -0.000000 0.438686 0.447238 -0.192535 14.961423 137.233272 -0.000000 0.191060 0.215878 -0.440078
0.160000 11.904738 100.763712 -0.000000 0.438664 0.447240 -0.192523 15.543963 137.939688 -0.000000 0.191028 0.215883 -0.440068
0.165000 11.745538 100.939223 -0.000000 0.438631 0.447213 -0.192535 16.147318 138.717050 -0.000000 0.191006 0.215877 -0.440074
0.170000 11.617352 101.156523 -0.000000 0.438606 0.447231 -0.192520 16.668379 139.480347 -0.000000 0.190992 0.215879 -0.440070
0.175000 11.519942 101.398167 -0.000000 0.438591 0.447229 -0.192527 17.041485 140.137713 -0.000000 0.190989 0.215868 -0.440062
0.180000 11.426079 101.637879 -0.000000 0.438555 0.447243 -0.192534 17.210292 140.631321 -0.000000 0.191001 0.215844 -0.440074
0.185000 11.343978 101.846311 -0.000000 0.438520 0.447265 -0.192540 17.199143 140.937231 -0.000000 0.191006 0.215830 -0.440067
0.190000 11.258599 102.007160 -0.000000 0.438470 0.447294 -0.192541 17.018337 141.060850 -0.000000 0.191025 0.215809 -0.440082
0.195000 11.180936 102.111585 -0.000000 0.438442 0.447311 -0.192550 16.728816 141.025633 -0.000000 0.191059 0.215785 -0.440077
